# xmcd
#
# Track frame offsets: 
#        150
#        10516
#        20964
#        33230
#        44164
#        56685
#        66732
#        76994
#        90552
#
# Disc length: 1336 seconds
#
# Revision: 0
# Processed by: cddbd v1.5.2PL0 Copyright (c) Steve Scherf et al.
# Submitted via: ExactAudioCopy v1.0b3
#
DISCID=76053609
DTITLE=Sam Cooke - Sam Cooke
DYEAR=1900
DGENRE=
TTITLE0=You're Always On My Mind
TTITLE1=If I Had You (I'd Be Happy)
TTITLE2=Don't Cry On My Shoulder
TTITLE3=Out In The Cold Again
TTITLE4=You Belong To Me
TTITLE5=Baby Won't You Please Come Home
TTITLE6=Little Things You Do
TTITLE7=Long, Long Ago
TTITLE8=I Fall In Love Every Day
EXTD=
EXTT0=
EXTT1=
EXTT2=
EXTT3=
EXTT4=
EXTT5=
EXTT6=
EXTT7=
EXTT8=
PLAYORDER=
